<svg width="78" height="28" viewBox="0 0 78 28" fill="none" xmlns="http://www.w3.org/2000/svg">
<g clip-path="url(#clip0)">
<path d="M0 10.3588L3.48102 16.1113L4.87071 14.8138L1.08199 9.2829L0 10.3588Z" fill="white"/>
<path d="M51.685 5.8378L51.5504 6.59607L53.2154 6.07015L53.0078 5.1413L51.685 5.8378Z" fill="white"/>
<path d="M41.9841 0.659097L36.6268 6.67314L38.1859 6.23422L43.2864 0L41.9841 0.659097Z" fill="white"/>
<path d="M70.6439 8.88194L71.9589 8.19592L71.5832 11.4194L70.6439 8.88194Z" fill="white"/>
<path d="M62.4708 10.9491L63.6397 11.1834L65.1315 10.4744L63.8368 10.0015L62.4708 10.9491Z" fill="white"/>
<path d="M22.1719 7.52633L22.3589 11.2619L23.9902 10.6167L23.5019 6.82785L22.1719 7.52633Z" fill="white"/>
<path d="M63.7358 6.41159L62.4229 7.10526L62.4709 10.949L63.7926 10.286L64.2074 8.42544L63.7358 6.41159Z" fill="white"/>
<path d="M63.5555 11.1942L62.1096 23.7669L64.4209 23.3206L64.8736 10.5161L63.5555 11.1942Z" fill="white"/>
<path d="M66.3858 24.3696L66.4269 26.0746L70.8637 27.4588L72.1842 26.7736L67.8308 23.4719L63.4209 23.0928L62.1096 23.7669L66.3858 24.3696Z" fill="white"/>
<path d="M49.9265 21.3708L51.0169 20.7958L51.7119 22.0528L52.7395 21.5L52.9441 23.1571L59.3944 24.2769L60.6834 23.583L51.7889 18.2776L45.4793 19.3363L44.2485 20.4813L49.9265 21.3708Z" fill="white"/>
<path d="M47.8726 5.90182L46.5813 6.59748L44.2485 20.4813L45.5552 19.8168L47.7944 12.0213L47.8726 5.90182Z" fill="white"/>
<path d="M37.5685 7.76265L36.5398 8.29905L36.6263 8.63483L39.0746 7.11233L38.0047 5.98853L36.6269 6.67313L37.5685 7.76265Z" fill="white"/>
<path d="M40.3811 24.1627L29.8622 19.062L31.1827 18.0847L41.69 23.4708L40.3811 24.1627Z" fill="white"/>
<path d="M30.8508 5.17898L29.2567 8.13811L30.9411 7.63883L32.1565 4.4856L30.8508 5.17898Z" fill="white"/>
<path d="M16.3929 17.4037L15.0481 18.3074C15.0481 18.3074 15.3335 19.7763 15.7014 20.7981C16.0713 21.8236 16.9519 22.6473 16.9519 22.6473C17.5175 23.1885 18.2107 23.5824 18.9841 23.8034C20.4717 24.2225 22.1505 23.9493 23.5917 23.0497C23.9686 22.8162 24.4801 22.4424 24.7944 22.1475C23.3778 22.989 16.3929 17.4037 16.3929 17.4037Z" fill="white"/>
<path d="M23.5897 10.9573L24.817 24.2117L29.8315 23.4855L31.1732 22.7972L24.9501 10.1627L23.6698 10.5849L22.3589 11.2619L23.5897 10.9573Z" fill="white"/>
<path d="M4.79047 15.561L10.3932 28L15.7161 26.3191L17.0157 25.4639L5.96769 14.1479L4.58524 14.9589L3.48096 16.1113L4.79047 15.561Z" fill="white"/>
<path d="M60.3176 21.4297L60.3929 22.0403C60.8514 21.9899 61.333 21.9318 61.7452 21.7882C62.2257 21.6272 63.2695 21.1721 63.6664 20.8369C63.5176 20.8899 61.072 21.5105 60.3176 21.4297Z" fill="white"/>
<path d="M41.4857 18.2535L41.6854 19.2368C42.7628 19.0798 43.6876 18.6896 44.5968 18.1546C45.1673 17.822 45.7937 17.3201 45.9914 17.1864C45.8519 17.2737 41.4857 18.2535 41.4857 18.2535Z" fill="white"/>
<path d="M11.8498 26.8206L11.4339 25.9159L6.12172 14.3097L6.0126 14.0717L5.77119 14.1808L5.60996 14.2533L4.6643 14.7078C4.52478 14.4789 4.29321 14.0952 4.13228 13.8291L1.99405 10.2916L1.43481 9.36818L2.35992 8.79437C3.23496 8.24805 4.22317 7.74339 5.29821 7.29398C7.43876 6.40139 9.62359 5.92931 11.6159 5.92931C12.2713 5.92931 12.9055 5.98117 13.5012 6.08261C14.4943 6.1934 15.4128 6.51247 16.1714 7.00722C17.302 7.62608 18.1921 8.5861 18.6949 9.72181C19.1077 10.6552 19.1882 11.7484 18.9259 12.8824L18.7719 13.5486L19.3372 13.1474C19.7182 12.8767 20.1321 12.6455 20.5674 12.4599C21.32 12.1485 22.0987 11.9895 22.8787 11.9895C23.6172 11.9895 24.3153 12.1326 24.9542 12.414L25.3661 12.5948L25.3247 12.1547L25.1455 10.2531L25.1166 9.95162L24.8167 10.0278L23.9167 10.2562L23.759 7.01827L30.3511 4.95653L30.2979 7.47306L30.7943 7.59774L32.234 4.89675L36.5461 8.64051L36.7258 8.7972L36.9013 8.63569C37.492 8.0922 38.1922 7.65611 38.9822 7.3396L39.3122 7.20755L39.0861 6.93751L38.3086 6.00979L43.2592 0.423615L45.8519 4.21073L41.8831 6.2991L41.0017 6.76324L42.0024 6.78393C43.8839 6.82275 45.55 7.60199 46.6931 8.97771L47.1064 9.4767L47.3727 9.79719L46.9304 10.2568L46.6354 10.5634L45.6438 11.5988L45.4594 11.7912L45.6588 11.9674L46.5883 12.7866L46.9478 13.1032L47.0248 12.6362L47.3814 10.475L47.4726 9.92016L47.4755 9.92328L47.5692 9.35656L48.1016 6.16592H52.8539H53.0768L53.1144 5.95085L53.2073 5.40453H57.4869L58.5238 11.8144L58.5912 12.2296L58.9386 11.9827C59.3586 11.6841 59.8226 11.4384 60.3181 11.2528C60.9778 11.0091 61.6569 10.8847 62.3348 10.8847C63.1418 10.8847 63.9254 11.0672 64.603 11.4121C64.6209 11.4248 64.6464 11.4412 64.6811 11.4548L65.0027 11.5812L65.0407 11.2435L65.1182 10.545L65.1437 10.316L64.9136 10.2659L64.0458 10.076L64.0035 6.73462L70.6197 8.16021L71.1167 10.5645L71.6305 10.5744L72.1431 8.50534L77.6602 9.81872L72.0221 26.4528L67.9876 25.2126L67.959 23.6804L67.9549 23.4608L67.7323 23.4302L63.7065 22.874L63.9343 20.8709L63.9885 20.3943L63.5528 20.6128C63.3465 20.7156 63.1467 20.8021 62.958 20.8701C62.2998 21.1138 61.6256 21.237 60.9544 21.237C60.7601 21.237 60.565 21.2265 60.3752 21.2056L60.0313 21.1679L60.0851 21.5022L60.3685 23.2639L54.4951 22.2498L54.1874 19.6355L54.0884 18.7976L53.6927 19.5465L53.0166 20.823L51.7716 18.5731L51.3973 17.8973L51.2792 18.6567L51.008 20.3983L45.8603 19.6051L46.2594 17.215L46.3506 16.667L45.864 16.9518C45.0214 17.4462 44.0538 17.8183 42.9067 18.0895C42.5058 18.1852 42.0869 18.2515 41.6605 18.2861L41.4191 18.3059V18.5431V23.0536L31.2814 18.149L30.9005 17.9651L30.9008 18.3807L30.9077 22.5756L26.3751 23.2293L26.1847 21.2149L26.1331 20.676L25.738 21.0551C25.1391 21.6289 24.4644 22.0738 23.7329 22.3775C22.9847 22.689 22.2127 22.8465 21.439 22.8465C20.6664 22.8465 19.9405 22.6884 19.2811 22.3792C18.0596 21.804 17.1784 20.7604 16.8004 19.4436C16.6204 18.8251 16.5715 18.1719 16.6551 17.5015L16.7445 16.7874L16.2125 17.2833C15.8374 17.6318 15.4333 17.9648 15.0107 18.2705L14.8674 18.3739L14.9126 18.5425L16.4395 24.28L16.7092 25.2981L15.6869 25.6164L12.812 26.5174L11.8498 26.8206ZM13.1402 11.4183C12.992 11.4183 12.8389 11.4316 12.6846 11.4588L12.4889 11.4956L12.2001 11.5501L12.2872 11.8255L12.3439 12.0046L13.166 14.6378L13.2482 14.8909L13.3703 15.2706L13.6743 15.0059L13.876 14.83C14.6729 14.1289 14.9522 13.4171 14.784 12.5194C14.6781 11.9808 14.252 11.7124 14.0071 11.6002C13.7513 11.4795 13.4583 11.4183 13.1402 11.4183ZM35.1781 11.5047L34.6643 11.9944L33.3111 13.2817L33.0164 13.5619L33.4 13.707L34.8513 14.2553L35.2971 14.4233L35.205 13.9649C35.0852 13.3726 35.0539 12.7798 35.1101 12.2032L35.1781 11.5047ZM41.0877 10.0406C40.5264 10.0406 39.9834 10.2769 39.5976 10.6884C39.0123 11.314 38.8985 12.2369 39.3148 12.9844L39.425 13.187L39.6025 13.5109L39.8523 13.2372L40.0129 13.0629L41.998 10.8442L42.1541 10.6685L42.4044 10.3869L42.0472 10.2574L41.8247 10.1769C41.5911 10.0873 41.341 10.0406 41.0877 10.0406Z" fill="#201D2A"/>
<path d="M44.1233 13.327C44.1046 13.3435 44.0874 13.3644 44.0726 13.386C44.0922 13.3681 44.1112 13.3525 44.1313 13.3361L44.1233 13.327Z" fill="white"/>
<path d="M45.8359 11.7751L46.8273 10.7397L46.4881 11.0922L46.4979 11.0477L46.198 11.3574L45.2075 12.3897L46.1355 13.2069L46.3037 12.189L46.7657 12.594L45.8359 11.7751Z" fill="white"/>
<path d="M45.8359 11.775L46.7657 12.594L47.1217 10.433L46.8273 10.7396L45.8359 11.775Z" fill="white"/>
<path d="M33.4946 13.4659L33.5094 13.4721L33.4946 13.4659Z" fill="white"/>
<path d="M38.9833 14.3647C39.0627 14.4432 38.9894 14.3868 39.0783 14.4463L39.6847 14.0278C39.5947 13.9654 39.5055 13.8986 39.4236 13.8238C38.5437 13.0388 38.7723 11.2735 39.3431 10.3073C37.8406 11.494 37.9187 13.3208 38.9833 14.3647Z" fill="#201D2A"/>
<path d="M46.3037 15.353C45.3022 16.164 44.1605 16.6928 42.6522 17.0495C42.3225 17.1235 41.9994 17.1773 41.6834 17.2045C39.2892 17.4349 37.2807 16.3587 36.5186 14.6132C36.4236 14.4018 36.3504 14.1879 36.2951 13.9595C35.9425 12.4894 36.2436 11.1757 36.9855 10.146C37.059 10.0463 37.1363 9.95077 37.2173 9.85358C37.1794 9.88531 37.1406 9.91252 37.109 9.94227C36.8239 10.1908 36.5715 10.4631 36.357 10.7606C35.6143 11.7903 35.3133 13.1049 35.669 14.5727C35.7234 14.8011 35.7955 15.0181 35.8884 15.2247C36.6508 16.9742 38.66 18.0498 41.052 17.8211C41.3707 17.7911 41.6926 17.7395 42.0226 17.6616C43.5327 17.3048 44.6735 16.7783 45.675 15.9674C45.9196 15.7704 46.1555 15.5556 46.3844 15.3207L46.3633 15.3009C46.3404 15.3202 46.3234 15.3369 46.3037 15.353Z" fill="#201D2A"/>
<path d="M29.4316 10.9091L32.1065 7.22939L31.9979 7.13135L29.4171 10.6802L29.4316 10.9091Z" fill="#201D2A"/>
<path d="M47.1217 10.433L46.7657 12.594L46.3037 12.189L46.1355 13.2069L45.2075 12.3896L46.198 11.3574L46.4979 11.0477L46.4881 11.0921L46.8273 10.7396L47.1217 10.433Z" fill="#201D2A"/>
<path d="M43.8164 4.37196L44.7531 3.97866L43.041 1.82767L42.48 2.59472L43.8164 4.37196Z" fill="#201D2A"/>
<path d="M17.8842 9.70086C13.5608 4.54511 5.77063 7.31638 2.9707 9.72806L3.08012 9.91309C3.72387 9.55153 4.40265 9.22453 5.11675 8.93125C7.89786 7.76834 10.5493 7.42746 12.6751 7.79157C13.4265 7.87601 14.2225 8.0942 14.9152 8.54815C15.8742 9.07378 16.601 9.82157 17.0259 10.7799C17.78 12.4772 17.1157 14.7342 15.3398 16.6236C17.5672 14.6228 19.0912 12.7084 17.8842 9.70086Z" fill="#201D2A"/>
<path d="M26.7045 15.7075C26.6842 15.614 26.664 15.5191 26.633 15.4276C26.3896 14.5704 25.8665 13.8861 25.1808 13.4307C24.071 12.6929 22.5218 12.5413 20.9779 13.1794C20.1656 13.5231 19.4594 14.0521 18.901 14.684C19.3303 14.3225 19.8209 14.0213 20.3509 13.7968C21.8914 13.1567 23.4406 13.308 24.5541 14.0451C25.2399 14.501 25.7586 15.185 26.0072 16.041C26.0347 16.1329 26.0561 16.2292 26.0775 16.3258C26.1435 16.6517 26.1742 16.9812 26.1615 17.3187C26.1294 18.3054 25.7557 19.2988 25.1342 20.1472C25.034 20.2815 24.9287 20.4068 24.8196 20.5309C25.1733 20.232 25.4891 19.9013 25.7588 19.5309C26.3829 18.6879 26.7557 17.6925 26.7887 16.6999C26.8026 16.3686 26.7746 16.0337 26.7045 15.7075Z" fill="#201D2A"/>
<path d="M22.4475 14.4491C22.4414 14.4585 23.0747 13.8348 23.0675 13.8348C22.2752 13.8054 21.9403 14.5367 21.9128 14.5942C22.0755 14.5172 22.255 14.467 22.4475 14.4491Z" fill="#201D2A"/>
<path d="M23.9396 15.3431C23.9717 15.4483 23.9885 15.5528 23.9885 15.6673C23.9885 15.8288 23.9518 15.9838 23.8849 16.1266C24.0117 16.0617 24.9278 15.6268 24.5726 14.7053C24.5917 14.7336 23.9167 15.3403 23.9396 15.3431Z" fill="#201D2A"/>
<path d="M20.3359 15.856C20.3359 15.4769 20.9991 14.5571 21.2058 14.2502C20.1585 14.9019 19.7075 15.7815 19.7075 16.4743C19.7075 17.6613 20.773 18.6159 22.0469 18.6159C22.6496 18.6159 23.7533 18.304 24.4752 17.1603C24.0969 17.404 23.1353 17.9872 22.6308 17.9872C21.3571 17.9869 20.3359 17.0495 20.3359 15.856Z" fill="#201D2A"/>
<path d="M29.301 16.9424L29.3175 21.7468L30.0965 21.7904L29.9425 16.3136L29.301 16.9424Z" fill="#201D2A"/>
<path d="M24.83 7.79553L24.8459 8.22227L28.5373 7.14635L28.8109 11.7481L29.4268 10.9031L29.2954 6.28522L24.83 7.79553Z" fill="#201D2A"/>
<path d="M35.9889 9.44327L32.5215 6.328L32.1064 7.22937L35.1582 10.0361L35.9889 9.44327Z" fill="#201D2A"/>
<path d="M35.4618 15.2488L31.3908 13.9312L30.7977 14.5443L34.8533 16.1331C35.3133 16.9815 36.0103 17.7083 36.8879 18.2396C37.7375 18.7483 38.7083 19.0529 39.7365 19.1495V21.1104L40.3652 21.4175L40.5641 18.4717L35.4618 15.2488Z" fill="#201D2A"/>
<path d="M41.9989 14.6945C42.9987 14.4585 43.5753 13.9479 44.0717 13.386C43.6992 13.6852 41.8316 14.0836 41.5178 14.1876L40.9027 14.8288C41.1838 14.8532 41.6539 14.779 41.9989 14.6945Z" fill="#201D2A"/>
<path d="M40.1806 7.91795C38.337 8.15427 37.3763 9.6694 37.2174 9.85386C37.8982 9.29083 38.7515 8.87287 39.7125 8.65015C41.9938 8.11006 44.0052 8.79098 45.2484 10.2956L46.0178 9.65806C44.7864 8.17949 42.4612 7.37956 40.1806 7.91795Z" fill="#201D2A"/>
<path d="M46.3636 15.3009C46.5859 15.1179 46.981 14.9328 47.1912 14.7172L44.7227 12.558C44.5337 12.7793 44.3623 13.144 44.1316 13.3358L46.3636 15.3009Z" fill="#201D2A"/>
<path d="M59.0315 21.0871C56.4417 19.0033 56.5966 14.535 57.8679 13.1173L56.7269 6.11407L54.2311 6.42946L54.12 7.04633H56.0084L57.0085 13.4004C55.736 14.8226 55.1212 16.7279 55.5464 18.4723C55.8756 19.8202 56.7214 20.9112 57.9388 21.5422C58.0613 21.6079 58.1878 21.6652 58.3172 21.7193L58.3334 21.8125L59.0758 21.9273C59.0758 21.927 59.1531 21.1478 59.0315 21.0871Z" fill="#201D2A"/>
<path d="M49.0776 7.14464L48.9702 7.7618H51.8168L52.6553 12.2618L53.2869 11.6373L52.6229 6.88678L49.0776 7.14464Z" fill="#201D2A"/>
<path d="M53.9506 15.8807L53.0316 18.2048L53.2591 18.8095L54.5736 15.27L53.9506 15.8807Z" fill="#201D2A"/>
<path d="M51.2214 14.4168L50.5886 15.0354L49.9104 19.2331L50.5599 19.4759L51.2214 14.4168Z" fill="#201D2A"/>
<path d="M64.0059 13.076C64.3784 13.3364 64.6963 13.6659 64.9354 14.0578C65.1241 14.3585 65.2668 14.6951 65.358 15.0646C65.668 16.3264 65.2972 17.6911 64.4777 18.786C64.3952 18.897 64.3043 19.0044 64.2175 19.1098C64.5504 18.8296 68.5935 15.9101 64.6433 12.0757C60.2985 10.6736 58.6538 13.4486 58.5001 13.6245C58.9592 13.2426 59.4889 12.9266 60.0626 12.7118C61.5331 12.1667 62.9798 12.3557 64.0059 13.076Z" fill="#201D2A"/>
<path d="M61.8155 13.3525C61.8276 13.3794 62.4393 12.7285 62.4517 12.7285C61.6786 12.7597 61.3072 13.125 61.3454 13.2936C61.2991 13.359 61.2615 13.4239 61.2319 13.4956C61.3969 13.4151 61.702 13.3534 61.8155 13.3525Z" fill="#201D2A"/>
<path d="M63.2691 14.3038C63.2969 14.4052 63.3102 14.5115 63.3079 14.6257C63.301 14.7719 63.2622 14.9059 63.2054 15.0309C63.323 14.979 64.2599 14.6942 63.9022 13.6849C63.9114 13.7135 63.259 14.3043 63.2691 14.3038Z" fill="#201D2A"/>
<path d="M61.2167 17.5086C62.0911 17.5451 63.0582 17.0192 63.7518 16.0898C61.9722 16.4471 60.1014 13.5461 60.289 13.2621C59.6166 13.7393 59.0214 14.6597 58.9942 15.3029C58.9479 16.4956 59.9399 17.4587 61.2167 17.5086Z" fill="#201D2A"/>
<path d="M70.9688 25.0672L71.3859 25.3404L76.4768 10.3832L72.6667 9.52121L72.6189 10.3974L75.6924 11.065L70.9688 25.0672Z" fill="#201D2A"/>
<path d="M64.9229 7.91794L64.9561 8.75328L69.0071 9.54981L70.5667 16.7905L71.198 16.1677L69.7122 8.85246L64.9229 7.91794Z" fill="#201D2A"/>
<path d="M68.0403 16.1691L66.925 22.3441L67.5674 22.5479L68.6745 15.561L68.0403 16.1691Z" fill="#201D2A"/>
<path d="M15.47 24.6099L13.5753 17.8849L12.8817 18.3598L14.6379 24.8026L15.47 24.6099Z" fill="#201D2A"/>
<path d="M14.9783 14.4973C14.5412 14.9512 13.5724 15.8333 13.0204 16.1813L12.6852 15.1278L11.9511 12.8178L11.4845 11.2539L11.0292 11.826L11.494 13.3922L12.2281 15.7004L12.5619 16.7571C13.3176 16.2805 14.417 15.3859 14.9783 14.4973Z" fill="#201D2A"/>
<path d="M41.8262 10.5209C41.2282 10.2956 40.3812 10.3633 39.9239 10.8533C39.8176 10.9669 39.611 11.2568 39.5455 11.3863C39.9881 11.0417 40.7763 10.9672 41.293 11.1497L41.8262 10.5209Z" fill="white"/>
<path d="M14.4315 12.6076C14.3644 12.2619 14.0185 11.9873 13.8488 11.9111C13.5455 11.7677 13.0207 11.7453 12.6375 11.8136C12.7063 12.0465 12.7854 12.3197 12.8189 12.4316C12.9744 12.4528 13.2297 12.4982 13.3637 12.558C13.5319 12.6373 13.826 12.8243 13.8943 13.1723C13.9857 13.6367 13.9617 14.0708 13.764 14.4233C14.3062 13.9025 14.5693 13.3361 14.4315 12.6076Z" fill="white"/>
<path d="M15.3809 12.5979C15.1207 11.231 13.2948 10.4775 11.4845 11.4441L11.9511 13.0085L12.6852 15.3205L13.0201 16.3734C14.3782 15.5185 15.7433 14.4913 15.3809 12.5979ZM13.5828 14.6999C13.3851 14.0683 12.9515 12.7045 12.9515 12.7045C12.9535 12.7107 12.8661 12.4126 12.7625 12.0714C13.1463 12.0043 13.515 12.0315 13.8184 12.1743C13.988 12.2534 14.2862 12.4378 14.3513 12.7875C14.5012 13.5735 14.2306 14.1346 13.5828 14.6999Z" fill="white"/>
<path d="M42.7738 10.4291C41.7618 9.52034 40.1889 9.5909 39.2658 10.5807C38.3372 11.5688 38.4102 13.1094 39.4236 14.0144C39.5061 14.0924 39.5952 14.1561 39.685 14.2187L42.9492 10.5999C42.8916 10.541 42.8337 10.4823 42.7738 10.4291ZM39.6916 12.9745C39.3723 12.4007 39.4369 11.6722 39.9142 11.1616C40.3733 10.6719 41.0767 10.5325 41.6764 10.7589L39.6916 12.9745Z" fill="white"/>
<path d="M47.1354 10.0318L45.3278 11.7368L47.0451 13.2465L47.1354 10.0318Z" fill="white"/>
<path d="M63.8973 13.6849C63.9248 13.7923 63.939 13.8986 63.9355 14.0116C63.9054 14.6877 63.2562 15.2097 62.4821 15.1742C61.7087 15.1482 61.1011 14.5735 61.1315 13.8991C61.1576 13.2669 61.733 12.7665 62.4436 12.7345C62.3088 12.7048 62.1678 12.6892 62.0207 12.6841C60.726 12.6294 59.6677 13.5271 59.6232 14.6446C59.5734 15.8399 60.552 16.8143 61.8262 16.8685C63.1227 16.9192 64.1804 16.0184 64.2319 14.8288C64.247 14.4165 64.1225 14.0213 63.8973 13.6849Z" fill="white"/>
<path d="M24.6192 15.0498C24.6192 15.7288 23.9885 16.2728 23.2159 16.2728C22.4413 16.2728 21.8129 15.7285 21.8129 15.0498C21.8129 14.4171 22.3658 13.8954 23.0744 13.8348C22.9386 13.8107 22.7974 13.7968 22.6515 13.7968C21.357 13.7968 20.3358 14.7367 20.3358 15.856C20.3358 17.0504 21.3573 17.9872 22.6306 17.9872C23.9263 17.9872 24.9466 17.0498 24.9466 15.856C24.9466 15.4426 24.8071 15.053 24.5671 14.7322C24.5995 14.8288 24.6192 14.9359 24.6192 15.0498Z" fill="white"/>
<path d="M71.9503 8.19251L71.3754 10.5118L70.8446 7.94372L63.7358 6.41188L63.7855 10.2814L64.8568 10.5166L64.7795 11.2146C64.7657 11.2092 64.757 11.201 64.7494 11.195C63.4214 10.509 61.775 10.4387 60.2255 11.0117C59.7056 11.2063 59.2231 11.4622 58.7854 11.7733L57.713 5.1461H52.9853L52.855 5.90806H47.879L47.3107 9.3149L46.898 8.81591C45.6921 7.36567 43.9441 6.56687 42.0076 6.5272L46.2325 4.30424L43.2864 0.000274658L37.9636 6.0044L38.8823 7.10101C38.0501 7.43396 37.323 7.893 36.7206 8.44754L32.1567 4.48361L30.561 7.4776L30.6223 4.60035L23.4869 6.83182L23.6698 10.5846L24.8838 10.2763L25.0633 12.1783C23.6762 11.5685 22.0089 11.5835 20.4626 12.223C20.0044 12.4186 19.5772 12.6588 19.1835 12.9382C19.451 11.7796 19.3876 10.6373 18.9366 9.61867C18.404 8.41495 17.4667 7.42007 16.3176 6.79243C15.512 6.26708 14.5519 5.9398 13.5472 5.82844C11.0781 5.40595 8.11319 5.83977 5.19517 7.0568C4.12243 7.5048 3.12178 8.01315 2.21925 8.5759L1.07849 9.28402L1.7674 10.4228L3.90534 13.96C3.90534 13.96 4.55951 15.0439 4.56386 15.0433L5.71995 14.4871L5.88118 14.4145L11.1936 26.0213L11.7059 27.1369L12.8921 26.7628L15.7665 25.8615L17.0262 25.4696L16.6939 24.2143L15.1673 18.4777C15.6064 18.1594 16.0163 17.822 16.3946 17.4686C16.3092 18.1541 16.3541 18.848 16.5468 19.5122C16.946 20.9029 17.8763 22.0015 19.1673 22.6102C20.5616 23.2662 22.2628 23.2679 23.8366 22.6144C24.6259 22.2866 25.3278 21.8083 25.9227 21.239L26.1395 23.5237L31.1732 22.7981L31.1654 18.3796L41.6834 23.4685V18.5411C42.1054 18.5066 42.5361 18.4414 42.9692 18.3374C44.1276 18.0634 45.119 17.6876 45.9998 17.1711L45.5581 19.8174L51.2291 20.691L51.5403 18.6933L53.0215 21.3719L53.9269 19.6641L54.2577 22.4682L60.6875 23.5779L60.3465 21.4603C61.2267 21.5578 62.1545 21.4422 63.0506 21.1112C63.2628 21.0344 63.4724 20.9409 63.6729 20.8406L63.4168 23.0936L67.6961 23.6847L67.728 25.4027L72.1903 26.7739L78 9.63199L71.9503 8.19251ZM46.8274 10.7399L47.1223 10.433L46.766 12.5942L45.8365 11.7748L46.8274 10.7399ZM43.0592 1.91154L44.6171 3.98319L40.1632 6.14467L39.8555 5.68704L43.0592 1.91154ZM13.5666 17.8866L15.3436 24.5611L12.4675 25.4605L6.56575 12.558C6.24474 12.7232 5.65193 13.0003 5.10746 13.2616L2.97039 9.72748C3.82024 9.19618 4.75229 8.72523 5.74369 8.31521C8.52596 7.15683 11.1806 6.81113 13.3038 7.17837C14.0549 7.26111 14.85 7.47788 15.5465 7.93041C16.502 8.45717 17.2329 9.20695 17.6543 10.1619C18.6822 12.4871 16.9651 15.8333 13.5666 17.8866ZM26.7893 16.6987C26.7563 17.6925 26.3835 18.6882 25.7594 19.5306C25.1658 20.3453 24.3365 21.0177 23.3607 21.4289C20.8656 22.4637 18.3704 21.4289 17.7038 19.1098C17.058 16.8676 18.5606 14.1983 20.9782 13.1788C22.5221 12.5407 24.0713 12.692 25.1811 13.4302C25.8665 13.8852 26.3893 14.5695 26.6333 15.427C26.664 15.518 26.6842 15.6134 26.7048 15.707C26.7746 16.0337 26.8026 16.3686 26.7893 16.6987ZM40.3652 21.4175L29.9288 16.3077L29.9473 21.6615L27.2475 22.0219L27.0594 19.8151C27.893 18.4159 28.1978 16.767 27.7628 15.255C27.524 14.4239 27.0828 13.7025 26.4834 13.1244L26.0961 8.62492L24.8838 8.93265L24.8303 7.79496L29.1658 6.53117L29.4315 10.9085L32.6254 6.51559L35.7478 9.42655L31.3813 13.9297L35.4835 15.5182C35.9417 16.3683 36.6407 17.0906 37.5178 17.6228C38.3656 18.1351 39.337 18.438 40.3646 18.5374L40.3652 21.4175ZM34.9463 14.0144L33.4946 13.4661L34.8478 12.1785C34.7899 12.7696 34.8198 13.3876 34.9463 14.0144ZM46.3037 15.353C45.3022 16.164 44.1606 16.6928 42.6522 17.0495C42.3225 17.1235 41.9995 17.1773 41.6834 17.2045C39.2893 17.4349 37.2807 16.3587 36.5186 14.6132C36.4236 14.4018 36.3504 14.1879 36.2951 13.9595C35.9426 12.4894 36.2436 11.1755 36.9855 10.146C37.1991 9.84564 37.4527 9.57191 37.7375 9.32539C38.4363 8.71503 39.3284 8.27129 40.3426 8.0327C42.6233 7.49431 44.6318 8.1758 45.8632 9.65494L41.5172 14.1833C41.8119 14.2377 42.2805 14.1621 42.6264 14.081C43.6615 13.8339 44.2408 13.2961 44.7511 12.7101L46.4878 14.2397L47.014 14.705C46.786 14.9359 46.5463 15.1538 46.3037 15.353ZM55.5238 21.3963L54.5785 15.2658L53.2415 18.6477L51.2396 14.4208H51.217L50.4259 19.3158L47.0893 18.7474L47.5585 16.0158C47.6844 15.8999 47.8083 15.7837 47.9302 15.6611L49.0116 14.571L47.9606 13.6495L49.0773 7.14436H52.4437L53.2863 11.6475L54.2305 6.42888H56.6385L57.6377 12.7869C56.3662 14.2049 55.7485 16.111 56.1734 17.8548C56.5019 19.2067 57.3506 20.2954 58.5672 20.9313C58.6896 20.9916 58.8164 21.0514 58.9473 21.103L59.0746 21.9273L55.5238 21.3963ZM63.8385 19.3989C63.4706 19.6553 63.0657 19.8732 62.6303 20.0305C61.7709 20.351 60.9161 20.4175 60.1546 20.2693C59.6237 20.1668 59.1397 19.9642 58.7186 19.6709C58.0488 19.1965 57.5555 18.4961 57.3382 17.6165C57.0846 16.5599 57.3182 15.4315 57.8988 14.4432C58.1883 13.96 58.5597 13.5061 58.9991 13.1148C59.4891 12.6846 60.0573 12.3324 60.6895 12.0944C62.1608 11.5571 63.6119 11.7425 64.6334 12.4613C65.0091 12.722 65.3208 13.0538 65.5666 13.4395C65.753 13.7441 65.8977 14.0799 65.9854 14.4466C66.2983 15.7155 65.9258 17.0745 65.1081 18.1694C64.7578 18.6361 64.3309 19.0554 63.8385 19.3989ZM71.3514 25.1772L68.8841 24.4577L68.669 15.5528L67.4281 22.4223L64.7364 22.0018L64.9292 20.024C66.6868 18.57 67.6186 16.2765 67.1079 14.1981C66.8836 13.2777 66.4002 12.4764 65.7188 11.8671L65.9461 9.53451L64.9283 9.26928L64.9964 8.02391L69.6338 8.93634L71.1931 16.1751L72.7923 9.68526L76.3202 10.4483L71.3514 25.1772Z" fill="white"/>
<path d="M73.379 26.0211V25.3489H73.1224V25.2589H73.7396V25.3489H73.482V26.0211H73.379Z" fill="white"/>
<path d="M73.8427 26.0211V25.2589H73.9977L74.182 25.7986C74.199 25.8488 74.2114 25.8865 74.2192 25.9114C74.2281 25.8837 74.2419 25.843 74.2606 25.7892L74.4471 25.2589H74.5857V26.0211H74.4864V25.3832L74.2601 26.0211H74.1672L73.942 25.3723V26.0211H73.8427Z" fill="white"/>
</g>
<defs>
<clipPath id="clip0">
<rect width="78" height="28" fill="white"/>
</clipPath>
</defs>
</svg>
