<svg width="77" height="28" viewBox="0 0 77 28" fill="none" xmlns="http://www.w3.org/2000/svg">
<path d="M70.9503 8.19251L70.3755 10.5118L69.8446 7.94372L62.7358 6.41188L62.7856 10.2814L63.8569 10.5166L63.7796 11.2146C63.7657 11.2092 63.757 11.201 63.7495 11.195C62.4214 10.509 60.775 10.4387 59.2255 11.0117C58.7057 11.2063 58.2231 11.4622 57.7855 11.7733L56.713 5.1461H51.9853L51.8551 5.90806H46.879L46.3108 9.3149L45.898 8.81591C44.6921 7.36567 42.9441 6.56687 41.0076 6.5272L45.2325 4.30424L42.2864 0.000274658L36.9636 6.0044L37.8823 7.10101C37.0501 7.43396 36.323 7.893 35.7207 8.44754L31.1568 4.48361L29.561 7.4776L29.6224 4.60035L22.4869 6.83182L22.6699 10.5846L23.8838 10.2763L24.0633 12.1783C22.6762 11.5685 21.0089 11.5835 19.4627 12.223C19.0045 12.4186 18.5772 12.6588 18.1835 12.9382C18.451 11.7796 18.3876 10.6373 17.9366 9.61867C17.404 8.41495 16.4668 7.42007 15.3176 6.79243C14.5121 6.26708 13.5519 5.9398 12.5472 5.82844C10.0781 5.40595 7.11322 5.83977 4.1952 7.0568C3.12246 7.5048 2.12181 8.01315 1.21928 8.5759L0.0785217 9.28402L0.767432 10.4228L2.90537 13.96C2.90537 13.96 3.55955 15.0439 3.56389 15.0433L4.71998 14.4871L4.88121 14.4145L10.1936 26.0213L10.706 27.1369L11.8922 26.7628L14.7665 25.8615L16.0262 25.4696L15.6939 24.2143L14.1673 18.4777C14.6064 18.1594 15.0163 17.822 15.3946 17.4686C15.3092 18.1541 15.3541 18.848 15.5469 19.5122C15.946 20.9029 16.8764 22.0015 18.1673 22.6102C19.5617 23.2662 21.2628 23.2679 22.8366 22.6144C23.6259 22.2866 24.3279 21.8083 24.9227 21.239L25.1395 23.5237L30.1732 22.7981L30.1654 18.3796L40.6834 23.4685V18.5411C41.1054 18.5066 41.5362 18.4414 41.9692 18.3374C43.1276 18.0634 44.119 17.6876 44.9998 17.1711L44.5581 19.8174L50.2292 20.691L50.5403 18.6933L52.0215 21.3719L52.9269 19.6641L53.2578 22.4682L59.6875 23.5779L59.3465 21.4603C60.2268 21.5578 61.1545 21.4422 62.0506 21.1112C62.2628 21.0344 62.4724 20.9409 62.673 20.8406L62.4168 23.0936L66.6962 23.6847L66.728 25.4027L71.1903 26.7739L77 9.63199L70.9503 8.19251ZM45.8274 10.7399L46.1223 10.433L45.766 12.5942L44.8366 11.7748L45.8274 10.7399ZM42.0592 1.91154L43.6171 3.98319L39.1632 6.14467L38.8555 5.68704L42.0592 1.91154ZM12.5666 17.8866L14.3436 24.5611L11.4675 25.4605L5.56578 12.558C5.24477 12.7232 4.65196 13.0003 4.10749 13.2616L1.97042 9.72748C2.82027 9.19618 3.75232 8.72523 4.74372 8.31521C7.52599 7.15683 10.1806 6.81113 12.3038 7.17837C13.0549 7.26111 13.8501 7.47788 14.5465 7.93041C15.502 8.45717 16.2329 9.20695 16.6543 10.1619C17.6822 12.4871 15.9651 15.8333 12.5666 17.8866ZM25.7894 16.6987C25.7564 17.6925 25.3835 18.6882 24.7595 19.5306C24.1658 20.3453 23.3365 21.0177 22.3607 21.4289C19.8656 22.4637 17.3705 21.4289 16.7038 19.1098C16.0581 16.8676 17.5606 14.1983 19.9782 13.1788C21.5222 12.5407 23.0713 12.692 24.1811 13.4302C24.8666 13.8852 25.3893 14.5695 25.6333 15.427C25.664 15.518 25.6843 15.6134 25.7048 15.707C25.7746 16.0337 25.8027 16.3686 25.7894 16.6987ZM39.3652 21.4175L28.9288 16.3077L28.9473 21.6615L26.2476 22.0219L26.0594 19.8151C26.8931 18.4159 27.1979 16.767 26.7628 15.255C26.524 14.4239 26.0829 13.7025 25.4834 13.1244L25.0961 8.62492L23.8838 8.93265L23.8303 7.79496L28.1658 6.53117L28.4315 10.9085L31.6254 6.51559L34.7478 9.42655L30.3813 13.9297L34.4835 15.5182C34.9417 16.3683 35.6408 17.0906 36.5178 17.6228C37.3657 18.1351 38.3371 18.438 39.3646 18.5374L39.3652 21.4175ZM33.9463 14.0144L32.4947 13.4661L33.8479 12.1785C33.79 12.7696 33.8198 13.3876 33.9463 14.0144ZM45.3038 15.353C44.3022 16.164 43.1606 16.6928 41.6522 17.0495C41.3225 17.1235 40.9995 17.1773 40.6834 17.2045C38.2893 17.4349 36.2808 16.3587 35.5186 14.6132C35.4237 14.4018 35.3504 14.1879 35.2952 13.9595C34.9426 12.4894 35.2436 11.1755 35.9855 10.146C36.1991 9.84564 36.4527 9.57191 36.7375 9.32539C37.4363 8.71503 38.3284 8.27129 39.3427 8.0327C41.6233 7.49431 43.6318 8.1758 44.8632 9.65494L40.5173 14.1833C40.8119 14.2377 41.2806 14.1621 41.6265 14.081C42.6616 13.8339 43.2408 13.2961 43.7511 12.7101L45.4879 14.2397L46.0141 14.705C45.786 14.9359 45.5463 15.1538 45.3038 15.353ZM54.5239 21.3963L53.5785 15.2658L52.2415 18.6477L50.2396 14.4208H50.217L49.4259 19.3158L46.0893 18.7474L46.5586 16.0158C46.6845 15.8999 46.8084 15.7837 46.9302 15.6611L48.0116 14.571L46.9606 13.6495L48.0773 7.14436H51.4437L52.2864 11.6475L53.2306 6.42888H55.6386L56.6378 12.7869C55.3662 14.2049 54.7485 16.111 55.1734 17.8548C55.5019 19.2067 56.3506 20.2954 57.5672 20.9313C57.6897 20.9916 57.8165 21.0514 57.9473 21.103L58.0746 21.9273L54.5239 21.3963ZM62.8386 19.3989C62.4706 19.6553 62.0657 19.8732 61.6304 20.0305C60.771 20.351 59.9162 20.4175 59.1546 20.2693C58.6237 20.1668 58.1398 19.9642 57.7186 19.6709C57.0488 19.1965 56.5556 18.4961 56.3382 17.6165C56.0846 16.5599 56.3182 15.4315 56.8989 14.4432C57.1883 13.96 57.5597 13.5061 57.9991 13.1148C58.4891 12.6846 59.0574 12.3324 59.6895 12.0944C61.1609 11.5571 62.6119 11.7425 63.6334 12.4613C64.0091 12.722 64.3209 13.0538 64.5666 13.4395C64.753 13.7441 64.8978 14.0799 64.9855 14.4466C65.2984 15.7155 64.9258 17.0745 64.1081 18.1694C63.7579 18.6361 63.3309 19.0554 62.8386 19.3989ZM70.3514 25.1772L67.8841 24.4577L67.669 15.5528L66.4281 22.4223L63.7365 22.0018L63.9292 20.024C65.6868 18.57 66.6186 16.2765 66.108 14.1981C65.8837 13.2777 65.4003 12.4764 64.7189 11.8671L64.9461 9.53451L63.9284 9.26928L63.9964 8.02391L68.6338 8.93634L70.1931 16.1751L71.7924 9.68526L75.3203 10.4483L70.3514 25.1772Z" fill="white"/>
</svg>
